# xmcd
#
# Track frame offsets:
#	150
#	16516
#	28306
#	40326
#	51635
#	69017
#	83258
#	99897
#	110594
#	123642
#	132550
#	142900
#	151641
#	166137
#	185100
#	197146
#	215450
#	234154
#	246249
#	257704
#
# Disc length: 3533
#
# Revision: 2
# Processed by: cddbd v1.5.1PL0 Copyright (c) Steve Scherf et al.
# Submitted via: CDex 1.50Beta7
# Normalized: r0:DSETVAR1,TDELIM( - ),TSWAP
#
DISCID=0a0dcb14
DTITLE=Various Artist - Rockin' Blues
DYEAR=1999
DGENRE=Blues
TTITLE0=Leadbelly - John Hardy
TTITLE1=Pinetop Perkins - Yonders Wall
TTITLE2=Jimmy Reed - I'm nervous
TTITLE3=Lightnin' Slim - My Babe
TTITLE4=Big Joe Turner - Jump For Joy
TTITLE5=Mepmphis Slim - Blue and Lonesome
TTITLE6=Muddy Waters - Caledonia
TTITLE7=Big Joe Williams - Sinking Blues
TTITLE8=Billie Holiday - Billlies Blues
TTITLE9=Canned Heat - Pretty Thing
TTITLE10=Ray Charles - Sitting on the top of the world
TTITLE11=John Lee Hooker - Hobo Blues
TTITLE12=Lightnin' Hopkins - Goin' Back Home
TTITLE13=Missisipi John Hurt - Monday Morning Blues
TTITLE14=LeadBelly - Goodnight Irene
TTITLE15=Pinetop Perkins - Whiskey Headed Woman
TTITLE16=Howlin' wolf - All my life
TTITLE17=Jimmy Reed - Goin' Fishin'
TTITLE18=Lightnin' Slim - Bad Luck Blues
TTITLE19=Big Joe Williams - Terraplane Blues
EXTD=YEAR: 1999
EXTT0=
EXTT1=
EXTT2=
EXTT3=
EXTT4=
EXTT5=
EXTT6=
EXTT7=
EXTT8=
EXTT9=
EXTT10=
EXTT11=
EXTT12=
EXTT13=
EXTT14=
EXTT15=
EXTT16=
EXTT17=
EXTT18=
EXTT19=
PLAYORDER=
